<?xml version="1.0" standalone="no"?>
<!DOCTYPE svg PUBLIC "-//W3C//DTD SVG 1.1//EN" "http://www.w3.org/Graphics/SVG/1.1/DTD/svg11.dtd" >
<svg xmlns="http://www.w3.org/2000/svg">
<metadata>
Created by FontForge 20120731 at Mon Nov  7 14:40:53 2016
 By admin
</metadata>
<defs>
<font id="iconfont" horiz-adv-x="1024" >
  <font-face 
    font-family="iconfont"
    font-weight="500"
    font-stretch="normal"
    units-per-em="1024"
    panose-1="2 0 6 3 0 0 0 0 0 0"
    ascent="896"
    descent="-128"
    x-height="792"
    bbox="-0.111111 -224 1130 898"
    underline-thickness="0"
    underline-position="0"
    unicode-range="U+0078-E65E"
  />
<missing-glyph 
 />
    <glyph glyph-name=".notdef" 
 />
    <glyph glyph-name=".notdef" 
 />
    <glyph glyph-name=".null" horiz-adv-x="0" 
 />
    <glyph glyph-name="nonmarkingreturn" horiz-adv-x="341" 
 />
    <glyph glyph-name="x" unicode="x" horiz-adv-x="1001" 
d="M281 543q-27 -1 -53 -1h-83q-18 0 -36.5 -6t-32.5 -18.5t-23 -32t-9 -45.5v-76h912v41q0 16 -0.5 30t-0.5 18q0 13 -5 29t-17 29.5t-31.5 22.5t-49.5 9h-133v-97h-438v97zM955 310v-52q0 -23 0.5 -52t0.5 -58t-10.5 -47.5t-26 -30t-33 -16t-31.5 -4.5q-14 -1 -29.5 -0.5
t-29.5 0.5h-32l-45 128h-439l-44 -128h-29h-34q-20 0 -45 1q-25 0 -41 9.5t-25.5 23t-13.5 29.5t-4 30v167h911zM163 247q-12 0 -21 -8.5t-9 -21.5t9 -21.5t21 -8.5q13 0 22 8.5t9 21.5t-9 21.5t-22 8.5zM316 123q-8 -26 -14 -48q-5 -19 -10.5 -37t-7.5 -25t-3 -15t1 -14.5
t9.5 -10.5t21.5 -4h37h67h81h80h64h36q23 0 34 12t2 38q-5 13 -9.5 30.5t-9.5 34.5q-5 19 -11 39h-368zM336 498v228q0 11 2.5 23t10 21.5t20.5 15.5t34 6h188q31 0 51.5 -14.5t20.5 -52.5v-227h-327z" />
    <glyph glyph-name="home" unicode="&#xe600;" 
d="M511 813l-204 -204v82h-163v-245l-144 -144l29 -29l482 482l482 -482l29 29zM185 650h81v-82l-81 -81v163zM144 282v-489h285v285h164v-285h285v489l-367 368zM837 -166h-204v244v41h-40h-164h-40v-41v-244h-204v432l326 326l326 -326v-432z" />
    <glyph glyph-name="meizhuang" unicode="&#xe601;" 
d="M703 160q-2 0 -6 1t-9.5 6.5t-5.5 13.5v256q0 16 -12.5 29.5t-30.5 13.5h-7q7 12 7 21q-1 22 -4.5 57t-13.5 105.5t-33.5 105t-55.5 10.5q-14 -11 -47.5 -34t-49.5 -36t-32.5 -35t-19.5 -45v-128q0 -10 5 -21h-5q-18 0 -30.5 -13.5t-12.5 -29.5v-256q0 -7 -5 -12t-11 -7
l-5 -2q-13 0 -17 -3.5t-4 -17.5v-320q0 -22 11.5 -32.5t29.5 -10.5h87v299q0 12 -11 18t-21.5 0.5t-10.5 -18.5v-256h-21q-3 0 -6.5 0.5t-9.5 6t-6 14.5v277q1 3 1.5 6.5t6 9.5t14.5 6q14 -3 21 21v256q0 2 1 5.5t6.5 9.5t13.5 6h214q9 1 14.5 -5t5.5 -12v-6q1 -231 1 -254
q0 -8 6 -14.5t15 -6.5q7 0 12 -5.5t7 -10.5l3 -6v-277q0 -6 -5.5 -11.5t-10.5 -7.5l-6 -2h-42q-13 0 -18 -11t0 -21.5t18 -10.5h60q20 0 33 12t13 31v320q0 9 -5 14t-11 6zM596 501q-3 -8 -8.5 -13.5t-8.5 -6.5l-4 -1q-117 -1 -128 0q-5 0 -10.5 5.5t-7.5 10.5l-3 5
q1 7 -0.5 39.5t4 76.5t17.5 55q30 27 85 64q4 4 9.5 4t8.5 -2l4 -2q19 -30 21 -43q7 -35 16.5 -107.5t4.5 -84.5z" />
    <glyph glyph-name="shezhi" unicode="&#xe602;" 
d="M512 173q-87 0 -148.5 61.5t-61.5 148.5t61.5 148.5t148.5 61.5t148.5 -61.5t61.5 -148.5t-61.5 -148.5t-148.5 -61.5zM512 524q-58 0 -99.5 -41t-41.5 -99.5t41.5 -100t99.5 -41.5t99.5 41.5t41.5 100t-41.5 99.5t-99.5 41zM591 823v-46q0 -26 14 -47t38 -30
q15 -7 32 -7q34 0 59 25l29 29l112 -112l-29 -30q-18 -18 -23 -42.5t5 -48t31 -37.5t46 -14h45v-159h-45q-25 0 -46 -14t-31 -37.5t-5 -48.5t23 -43l29 -30l-112 -112l-29 30q-25 24 -59 24q-17 0 -32 -6q-24 -10 -38 -31t-14 -46v-45h-158v45q0 25 -14 46t-38 31
q-15 6 -32 6q-34 0 -59 -24l-29 -30l-112 112l29 30q18 18 23 43t-5 48.5t-31 37.5t-46 14h-45v159h45q25 0 46 14t31 37.5t5 48t-23 42.5l-29 30l112 112l29 -29q25 -25 59 -25q17 0 32 7q24 9 38 30t14 47v46h158zM591 892h-158q-28 0 -48.5 -22t-20.5 -51v-42
q0 -10 -9 -13q-3 -2 -6 -2q-6 0 -10 5l-30 29q-20 21 -48.5 21t-48.5 -21l-112 -112q-21 -20 -21 -49t21 -49l29 -30q7 -6 3.5 -15t-13.5 -9h-42q-29 0 -50.5 -20.5t-21.5 -48.5v-159q0 -28 21.5 -48.5t50.5 -20.5h42q10 0 13.5 -9t-3.5 -16l-29 -30q-21 -20 -21 -48.5
t21 -49.5l112 -112q20 -20 48.5 -20t48.5 20l30 30q4 4 10 4q3 0 6 -1q9 -4 9 -13v-42q0 -29 20.5 -50.5t48.5 -21.5h158q28 0 48.5 21.5t20.5 50.5v42q0 9 9 13q3 1 6 1q6 0 10 -4l30 -30q20 -20 48.5 -20t48.5 20l112 112q21 21 21 49.5t-21 48.5l-29 30q-7 7 -3.5 16
t13.5 9h42q29 0 50.5 20.5t21.5 48.5v159q0 28 -21.5 48.5t-50.5 20.5h-42q-10 0 -13.5 9t3.5 15l29 30q21 20 21 49t-21 49l-112 112q-20 21 -48.5 21t-48.5 -21l-30 -29q-4 -5 -10 -5q-3 0 -6 2q-9 3 -9 13v42q0 29 -20.5 51t-48.5 22v0z" />
    <glyph glyph-name="sousuo" unicode="&#xe603;" 
d="M838 472q0 -153 -100 -270q223 -222 265 -263q22 -22 8 -45q-13 -21 -39 -8q-10 4 -19 14q-12 13 -77 77t-123.5 122t-59.5 58q-116 -100 -270 -100q-113 0 -208.5 55.5t-151 151t-55.5 208t55.5 208t151 151t208.5 55.5t208.5 -55.5t151 -151t55.5 -207.5zM423 821
q-95 0 -175 -47t-127 -127t-47 -175t47 -175.5t127 -127t175 -46.5t175.5 46.5t127 127t46.5 175.5t-46.5 175t-127 127t-175.5 47z" />
    <glyph glyph-name="watch" unicode="&#xe604;" 
d="M811 341q-1 0 -2 0.5l-1 0.5q-9 -65 -41.5 -120t-83.5 -94v-149q0 -36 -25 -61t-61 -25h-213q-35 0 -60 25t-25 61v149q-60 45 -94 112t-34 144t34 144t94 112v149q0 36 25 61t60 25h213q36 0 61 -25t25 -61v-149q51 -39 83.5 -94t41.5 -120l1 0.5t2 0.5q17 0 29.5 -12.5
t12.5 -30.5t-12.5 -30.5t-29.5 -12.5zM341 -21q0 -18 12.5 -30.5t30.5 -12.5h213q18 0 30.5 12.5t12.5 30.5v122q-70 -37 -149.5 -37t-149.5 37v-122zM640 789q0 18 -12.5 30.5t-30.5 12.5h-213q-18 0 -30.5 -12.5t-12.5 -30.5v-122q70 37 149.5 37t149.5 -37v122zM491 661
q-115 0 -196.5 -81t-81.5 -196t81.5 -196t196.5 -81t196 81t81 196t-81 196t-196 81zM512 324v-132q0 -9 -6 -15t-15 -6t-15.5 6t-6.5 15v132q-19 7 -30.5 23t-11.5 37q0 14 6 28l-64 64q-6 7 -6 15.5t6 14.5t14.5 6t14.5 -6l65 -65q13 7 28 7q26 0 45 -19t19 -45
q0 -21 -12 -37t-31 -23zM491 405q-9 0 -15.5 -6t-6.5 -15t6.5 -15t15.5 -6t15 6t6 15t-6 15t-15 6z" />
    <glyph glyph-name="back" unicode="&#xe605;" 
d="M230 380l503 -502l61 63l-441 439l441 441l-61 62z" />
    <glyph glyph-name="jiaguanzhu" unicode="&#xe606;" horiz-adv-x="1120" 
d="M560.5 -118q-26.5 0 -67.5 41l-404 420q-32 52 -50.5 100t-18.5 108q0 131 83 223.5t201 92.5q146 0 257 -130q115 130 257 130q118 0 201 -92.5t83 -223.5h-53q0 65 -27 124.5t-81 99t-123 39.5q-131 0 -237 -135l-22 -27l-20 28q-100 134 -235 134q-69 0 -123 -39.5
t-81 -99t-27 -124.5q0 -50 15.5 -91t43.5 -87l398 -413q25 -24 31 -25q5 1 30 26l52 53l38 -36l-52 -54q-42 -42 -68.5 -42zM704 286h426v-53h-426v53zM891 473h52v-426h-52v426z" />
    <glyph glyph-name="fangdajing" unicode="&#xe607;" 
d="M1028 -89l-236 265q93 117 93 265q0 116 -57 213.5t-154.5 154.5t-213 57t-213.5 -57t-154.5 -154.5t-56.5 -213t56.5 -213t154.5 -154.5t213 -57q85 0 161 31.5t135 87.5l231 -261l41 36v0zM460.5 80q-98.5 0 -181.5 48.5t-131.5 131.5t-48.5 181.5t48.5 181.5
t131.5 131.5t181.5 48.5t181.5 -48.5t131.5 -131.5t48.5 -181.5t-48.5 -181.5t-131.5 -131.5t-181.5 -48.5z" />
    <glyph glyph-name="zhengque" unicode="&#xe625;" 
d="M512 767q-104 0 -192.5 -51t-139.5 -139.5t-51 -192.5t51 -192.5t139.5 -139.5t192.5 -51t192.5 51t139.5 139.5t51 192.5t-51 192.5t-139.5 139.5t-192.5 51zM753 510l-286 -286q-7 -7 -17 -7t-17 7l-161 161q-7 7 -7 17t7 17t16.5 7t16.5 -7l145 -144l269 269q7 7 17 7
t17 -7t7 -17t-7 -17z" />
    <glyph glyph-name="xiaoxi" unicode="&#xe608;" 
d="M305 593h417v-45h-417v45zM305 440h417v-45h-417v45zM305 286h277v-46h-277v46zM157 -90l52 173q-85 66 -134 142q-59 91 -59 187q0 87 41 167q39 76 109 135t158 91q91 33 187 33q100 0 190.5 -32t159.5 -92q69 -59 106 -135q39 -80 39 -167t-39 -166q-37 -77 -106 -136
t-159.5 -91t-190.5 -32q-59 0 -165 26l-189 -103v0zM511 798q-121 0 -226.5 -52.5t-167 -141.5t-61.5 -192q0 -79 48.5 -158.5t139.5 -147.5l11 -8l-32 -107l117 65l8 -2q109 -28 163 -28q123 0 228 52t166.5 141t61.5 193.5t-61.5 193.5t-166.5 140.5t-228 51.5z" />
    <glyph glyph-name="quxiao" unicode="&#xe609;" 
d="M512 812q-104 0 -198.5 -40.5t-163 -109t-109 -163.5t-40.5 -199t40.5 -198.5t109 -163t163 -109t198.5 -40.5t199 40.5t163.5 109t109 163t40.5 198.5t-40.5 199t-109 163.5t-163.5 109t-199 40.5zM727 51q-8 -7 -17 -7q-12 0 -19 9l-182 211l-179 -212q-8 -9 -20 -9
q-9 0 -16 6q-8 7 -9 17.5t6 18.5l185 218l-174 202q-7 8 -6 18.5t9 17.5t18.5 6t17.5 -9l168 -195l167 197q7 8 17.5 9t18.5 -6t9 -17.5t-6 -18.5l-172 -204l186 -216q7 -8 6.5 -19t-8.5 -17z" />
    <glyph glyph-name="jiahao" unicode="&#xe60a;" 
d="M938 442h-383l1 374v0v1v5h-1q-1 6 -1.5 21t-1 19.5t-3.5 14t-7 12.5t-12 6t-19 3q-16 0 -26 -4t-14.5 -14.5t-5.5 -19.5t-2 -29q-1 -5 -1 -8v0v-381h-378h-17.5h-16.5t-13.5 -0.5t-12 -2t-9 -4.5t-7.5 -7.5t-3.5 -11.5t-1.5 -16q0 -10 1.5 -17.5t6.5 -12t8.5 -7t13 -3.5
t14.5 -1h18.5h19.5h377v-391q0 -19 0.5 -27.5t3 -21t7.5 -18t14.5 -9.5t23.5 -4q8 0 14.5 0.5t11 3.5l7.5 5t5 7.5t3 8.5t1.5 11.5t0.5 12.5v14.5v15.5l1 392l384 1q7 0 20 -0.5t18 -0.5t14.5 1t13 3.5t8 7t6 12t1.5 17.5t-1.5 17.5t-6.5 12t-8.5 7.5t-13 4t-14.5 1h-18.5
h-19.5v0zM938 442z" />
    <glyph glyph-name="go" unicode="&#xe60b;" 
d="M283 -109q14 0 24 10l458 459q10 10 10 24t-10 24l-458 459q-10 10 -24 10t-24 -10t-10 -24.5t10 -24.5l434 -434l-434 -434q-10 -10 -10 -24.5t10 -24.5t24 -10z" />
    <glyph glyph-name="icons07" unicode="&#xe60c;" 
d="M512 -93q-13 0 -22 10l-464 546q-13 16 -2 34l189 283q9 13 24 13h550q15 0 24 -13l189 -283q11 -18 -2 -34l-464 -546q-9 -10 -22 -10zM84 483l428 -504l428 504l-168 252h-520zM976 462h-928q-7 0 -12.5 5.5t-5.5 13.5t5.5 13.5t12.5 5.5h928q7 0 12.5 -5.5t5.5 -13.5
t-5.5 -13.5t-12.5 -5.5zM494 477q-8 0 -13 6q-6 5 -5.5 13t6.5 13l292 269q6 5 13.5 4.5t13 -6t5 -13.5t-5.5 -13l-293 -268q-5 -5 -13 -5zM494 477q-8 0 -13 5l-257 269q-6 6 -5.5 13.5t6 13t13 5t13.5 -5.5l257 -269q5 -5 5 -13t-5.5 -13t-13.5 -5zM512 -84q-12 0 -17 12
l-225 546q-3 7 0 14t10 10t14 0t10 -10l225 -546q3 -7 0 -14t-10 -10q-3 -2 -7 -2zM512 -84q-3 0 -6 2q-8 2 -11 9t-1 14l197 546q2 8 9 11t14.5 0.5t10.5 -9.5t1 -14l-196 -546q-5 -13 -18 -13v0z" />
    <glyph glyph-name="2" unicode="&#xe60d;" 
d="M137.5 505q-50.5 0 -86 -35.5t-35.5 -85.5t35.5 -85.5t86 -35.5t86 35.5t35.5 85.5t-35.5 85.5t-86 35.5zM137 307q-32 0 -54.5 22.5t-22.5 54.5t22.5 54.5t54.5 22.5t54.5 -22.5t22.5 -54.5t-22.5 -54.5t-54.5 -22.5zM886.5 505q-50.5 0 -86 -35.5t-35.5 -85.5
t35.5 -85.5t86 -35.5t86 35.5t35.5 85.5t-35.5 85.5t-86 35.5zM887 307q-32 0 -54.5 22.5t-22.5 54.5t22.5 54.5t54.5 22.5t54.5 -22.5t22.5 -54.5t-22.5 -54.5t-54.5 -22.5zM512 505q-50 0 -85.5 -35.5t-35.5 -85.5t35.5 -85.5t85.5 -35.5t85.5 35.5t35.5 85.5t-35.5 85.5
t-85.5 35.5zM512 307q-32 0 -54.5 22.5t-22.5 54.5t22.5 54.5t54.5 22.5t54.5 -22.5t22.5 -54.5t-22.5 -54.5t-54.5 -22.5z" />
    <glyph glyph-name="shouji" unicode="&#xe60e;" 
d="M406 711h181v-34h-181v34zM572 -5.5q0 -31.5 -22.5 -53.5t-53.5 -22t-53 22t-22 53.5t22 53.5t53 22t53.5 -22t22.5 -53.5zM496.5 41q-19.5 0 -33 -13.5t-13.5 -33t13.5 -33t33 -13.5t33 13.5t13.5 33t-13.5 33t-33 13.5zM760 787h-527q-34 0 -58.5 -27.5t-24.5 -66.5
v-753q0 -39 24.5 -66.5t58.5 -27.5h406l37 -32l22 27l-41 36v-1v1h-397q-31 0 -53 26t-22 62v703q0 37 22 62.5t53 25.5h473q31 0 53 -25.5t22 -62.5v-703q0 -36 -22 -62t-53 -26h-21v-31h48q34 0 58.5 27.5t24.5 66.5v753q0 39 -24.5 66.5t-58.5 27.5z" />
    <glyph glyph-name="jinggao" unicode="&#xe60f;" 
d="M480 556v-384h64v384h-64zM480 108v-64h64v64h-64zM0 300q0 -139 68.5 -257t186.5 -186.5t257 -68.5t257 68.5t186.5 186.5t68.5 257t-68.5 257t-186.5 186.5t-257 68.5t-257 -68.5t-186.5 -186.5t-68.5 -257zM64 300q0 122 60 225t163 163t225 60t225 -60t163 -163
t60 -225t-60 -225t-163 -163t-225 -60t-225 60t-163 163t-60 225z" />
    <glyph glyph-name="23" unicode="&#xe610;" 
d="M877 459q-28 0 -48 20.5t-20 49.5t20 50t48 21t48 -21t20 -50t-20 -49.5t-48 -20.5zM877 581q-20 0 -34.5 -15t-14.5 -36.5t14.5 -36.5t34.5 -15t34.5 15t14.5 36.5t-14.5 36.5t-34.5 15zM512 91q-96 0 -164.5 68t-68.5 164t68.5 164.5t164.5 68.5t164.5 -68.5
t68.5 -164.5t-68.5 -164t-164.5 -68zM512 518q-81 0 -138 -57t-57 -137.5t57 -138t138 -57.5t138 57.5t57 138t-57 137.5t-138 57zM512 168q-64 0 -109.5 45.5t-45.5 109.5t45.5 109.5t109.5 45.5t109.5 -45.5t45.5 -109.5t-45.5 -109.5t-109.5 -45.5zM512 440
q-48 0 -82.5 -34t-34.5 -82.5t34.5 -83t82.5 -34.5t82.5 34.5t34.5 83t-34.5 82.5t-82.5 34zM1016 -31h-1008v680h37v-642h934v642h37v-680zM736 635l-26 145h-396l-26 -145l-37 7l32 176h458l32 -176zM745 672h272v-37h-272v37zM7 672h272v-37h-272v37z" />
    <glyph glyph-name="iconfontcoupons" unicode="&#xe611;" horiz-adv-x="1060" 
d="M963 -204h-867q-39 0 -67 28t-28 68v208q0 25 14.5 44.5t37.5 26.5q43 13 71 50q27 37 27 83t-27 83q-28 37 -71 50q-23 7 -37.5 26.5t-14.5 44.5v208q0 40 28 68t67 28h867q39 0 67 -28t28 -68v-208q0 -25 -14.5 -44.5t-37.5 -26.5q-43 -13 -70 -50q-28 -37 -28 -83
t28 -83q27 -37 70 -50q23 -7 37.5 -26.5t14.5 -44.5v-208q0 -40 -28 -68t-67 -28v0zM96 762q-18 0 -31.5 -13.5t-13.5 -32.5v-208q0 -18 17 -24q59 -18 95 -67q38 -50 38 -113t-38 -113q-36 -49 -95 -67q-17 -6 -17 -24v-208q0 -19 13.5 -32.5t31.5 -13.5h867q19 0 32 13.5
t13 32.5v208q0 18 -17 23q-58 18 -95 68q-38 50 -38 113t38 113q37 49 95 67q17 6 17 24v208q0 19 -13 32.5t-32 13.5h-867v0v0zM717 221h-164v96h164q10 0 17.5 7.5t7.5 17.5t-7.5 17.5t-17.5 7.5h-125l141 141q7 7 7 17.5t-7 17.5t-17.5 7t-17.5 -7l-168 -168l-168 168
q-7 7 -17.5 7t-18 -7t-7.5 -17.5t8 -17.5l141 -141h-126q-10 0 -17.5 -7.5t-7.5 -17.5t7.5 -17.5t17.5 -7.5h161v-96h-161q-10 0 -17.5 -7.5t-7.5 -18t7.5 -17.5t17.5 -7h161v-135q0 -11 7.5 -18t17.5 -7t17.5 7t7.5 18v135h164q10 0 17.5 7t7.5 17.5t-7.5 18t-17.5 7.5v0z
" />
    <glyph glyph-name="add" unicode="&#xe612;" 
d="M1002 406h-468v468q0 9 -6.5 15.5t-15.5 6.5t-15.5 -6.5t-6.5 -15.5v-468h-468q-9 0 -15.5 -6.5t-6.5 -15.5t6.5 -15.5t15.5 -6.5h468v-468q0 -9 6.5 -15.5t15.5 -6.5t15.5 6.5t6.5 15.5v468h468q9 0 15.5 6.5t6.5 15.5t-6.5 15.5t-15.5 6.5z" />
    <glyph glyph-name="erji" unicode="&#xe613;" 
d="M911 278h-48q0 56 -3 102t-12 98t-24 92t-41 78t-61.5 62.5t-86.5 39.5t-115 15q-184 0 -275.5 -120t-91.5 -367h-47q0 265 105 400t309 135q73 0 132 -18t99 -46.5t69.5 -72t46.5 -88t27 -101.5t13.5 -104.5t3.5 -104.5zM184 -11l-18 -5q-48 -11 -87 23.5t-55 102.5
t4 116.5t68 59.5l18 4zM87 239q-23 -15 -29 -51t4 -71q9 -40 29 -68t47 -31zM222 -43h-1q-27 -6 -50.5 8.5t-30.5 42.5l-57 246q-6 27 8.5 50.5t41.5 29.5q28 7 52 -8t30 -42l57 -246q7 -27 -8 -50.5t-42 -30.5v0zM143 297q-12 -3 -18.5 -13t-3.5 -22l57 -246
q3 -11 13 -17.5t21 -3.5h1q12 3 18 13t4 21l-58 246q-2 12 -12 18t-22 4zM910 293l19 -4q48 -11 67.5 -59.5t4 -116t-54.5 -102t-87 -23.5l-19 4zM886 21q27 4 47 32t29 67q10 35 4 71t-28 51l-52 -221v0zM753 42l57 245q6 27 29.5 41.5t51.5 8.5q27 -6 41.5 -29.5
t8.5 -50.5l-57 -246q-6 -27 -29.5 -41.5t-50.5 -8.5h-1q-27 7 -42 30.5t-8 50.5v0zM847 278l-57 -245q-2 -11 4 -21t17 -13h1q12 -3 22 3.5t13 17.5l57 245q2 12 -4.5 22t-18.5 13q-11 2 -21 -4t-13 -18z" />
    <glyph glyph-name="gouwuche" unicode="&#xe614;" 
d="M1007 670q-7 10 -19 10h-787l-33 176q-2 8 -8.5 13.5t-15.5 5.5h-110q-10 0 -17 -7t-7 -17.5t7 -17.5t17 -7h90l31 -175v-1l99 -513q1 -9 8.5 -14.5t16.5 -5.5h587q10 0 17 7t7 17.5t-7 17.5t-17 7h-567l-15 77l612 -3v0q8 0 15 6t9 14l92 390q3 11 -5 20zM877 292
l-603 2l-44 233l-20 103h747zM353.5 67q-35.5 0 -60.5 -25.5t-25 -60.5t25 -60.5t60 -25.5t60.5 25.5t25.5 60.5t-25 60.5t-60.5 25.5zM353 -56q-15 0 -26 11t-11 26t11 26t26 11t26 -11t11 -26t-11 -26t-26 -11zM769 67q-35 0 -60.5 -25.5t-25.5 -60.5t25.5 -60.5
t60.5 -25.5t60.5 25.5t25.5 60.5t-25.5 60.5t-60.5 25.5zM769 -56q-15 0 -26 11t-11 26t11 26t26 11t26 -11t11 -26t-11 -26t-26 -11z" />
    <glyph glyph-name="delete" unicode="&#xe626;" 
d="M743 789h-462v58h462v-58zM396 558v-463h58v463h-58zM801 37q0 -24 -17 -41t-40 -17h-464q-24 0 -40.5 17t-16.5 41v578h-58v-578q0 -48 34 -82t82 -34h462q48 0 82 34t34 82v578h-58v-578v0zM107 731v-58h810v58h-810zM570 558v-463h58v463h-58z" />
    <glyph glyph-name="che" unicode="&#xe615;" 
d="M539 807q7 -11 16 -30q9 -16 16 -32l12 -28h149q53 0 70 -47v0v0l94 -242l28 -4q14 -2 32.5 -20.5t18.5 -50.5v-228h-94v-115q0 -16 -11 -25q-12 -10 -31 -10q-20 0 -32 10q-11 9 -11 25v115h-568v-115q0 -16 -11 -25q-12 -10 -32 -10q-19 0 -31 10q-11 9 -11 25v115h-94
v228q0 32 18.5 50.5t33.5 20.5l27 4l94 242q18 47 70 47h151l12 28q6 15 15 32q9 19 17 30h52zM555 854h-85q-9 0 -23.5 -23t-24.5 -45l-10 -23h-120q-85 0 -114 -76l-83 -217q-31 -4 -61.5 -35.5t-30.5 -81.5v-275h94v-68q0 -39 26 -60t62 -21t62.5 21.5t26.5 59.5v68h476
v-68q0 -38 26.5 -59.5t62.5 -21.5t62 21t26 60v68h94v275q0 50 -30.5 81.5t-61.5 35.5l-83 217q-29 76 -114 76h-119q0 1 -10 23t-24.5 45t-23.5 23v0zM720 633q1 -3 3 -8v-1l36 -97h-494l36 97v1q2 5 3 8h416zM722 679h-420q-32 0 -45 -39l-60 -159h630l-60 159
q-13 39 -45 39v0zM207.5 210q-39.5 0 -67.5 28.5t-28 69t28 69t67.5 28.5t67.5 -28.5t28 -69t-28 -69t-67.5 -28.5zM207.5 359q-20.5 0 -34.5 -15t-14 -36.5t14 -36.5t34.5 -15t34.5 15t14 36.5t-14 36.5t-34.5 15zM816.5 210q-39.5 0 -67.5 28.5t-28 69t28 69t67.5 28.5
t67.5 -28.5t28 -69t-28 -69t-67.5 -28.5zM816.5 359q-20.5 0 -34.5 -15t-14 -36.5t14 -36.5t34.5 -15t34.5 15t14 36.5t-14 36.5t-34.5 15z" />
    <glyph glyph-name="normal-chosen" unicode="&#xe616;" 
d="M0 -128h1024v1024zM826 301l-250 -282l-122 122q-9 9 -9 22t9.5 22.5t22.5 9.5t22 -9l77 -77l198 230q10 10 23 10t22 -10q10 -5 13 -16.5t-6 -21.5z" />
    <glyph glyph-name="dui" unicode="&#xe617;" 
d="M388 41q-22 0 -38 16l-331 331q-15 15 -15 37t15.5 37.5t37.5 15.5t37 -15l294 -294l542 542q15 16 37 16t37.5 -15.5t15.5 -37.5t-15 -38l-580 -579q-15 -16 -37 -16v0z" />
    <glyph glyph-name="diannao" unicode="&#xe618;" 
d="M835 75q13 0 22 9.5t9 23t-9 23t-22 9.5t-22.5 -9.5t-9.5 -23t9.5 -23t22.5 -9.5zM975 596h-281q-19 0 -32.5 -13.5t-13.5 -33.5v-482q0 -19 13.5 -33t32.5 -14h281q19 0 32.5 14t13.5 33v482q0 20 -13.5 33.5t-32.5 13.5zM986 67q0 -4 -3 -7.5t-8 -3.5h-281
q-4 0 -7.5 3.5t-3.5 7.5v86h303v-86zM986 192h-303v357q0 5 3.5 8.5t7.5 3.5h281q5 0 8 -3.5t3 -8.5v-357zM45 706h835v-95h46v137h-923v-618h334v-67h-125v-42h418v42h-38v67h38v42h-585v534z" />
    <glyph glyph-name="daohang" unicode="&#xe619;" 
d="M76 -52v343h343v-343h-343zM419 344h-343q-22 0 -37.5 -15.5t-15.5 -37.5v-343q0 -22 15.5 -37.5t37.5 -15.5h343q22 0 37.5 15.5t15.5 37.5v343q0 22 -15.5 37.5t-37.5 15.5v0zM605 477v343h343v-343h-343zM948 873h-343q-22 0 -37.5 -15.5t-15.5 -37.5v-343
q0 -22 15.5 -37.5t37.5 -15.5h343q22 0 37.5 15.5t15.5 37.5v343q0 22 -15.5 37.5t-37.5 15.5v0zM76 477v343h343v-343h-343zM419 873h-343q-22 0 -37.5 -15.5t-15.5 -37.5v-343q0 -22 15.5 -37.5t37.5 -15.5h343q22 0 37.5 15.5t15.5 37.5v343q0 22 -15.5 37.5t-37.5 15.5
v0zM605 -52v343h343v-343h-343zM948 344h-343q-22 0 -37.5 -15.5t-15.5 -37.5v-343q0 -22 15.5 -37.5t37.5 -15.5h343q22 0 37.5 15.5t15.5 37.5v343q0 22 -15.5 37.5t-37.5 15.5v0z" />
    <glyph glyph-name="minus" unicode="&#xe61a;" 
d="M998 407h-974q-9 0 -15.5 -6.5t-6.5 -16t6.5 -16t15.5 -6.5h974q9 0 15.5 6.5t6.5 16t-6.5 16t-15.5 6.5z" />
    <glyph glyph-name="box" unicode="&#xe61b;" horiz-adv-x="1029" 
d="M151 774q4 1 23 1h348h348q18 1 24 -17q25 -76 71.5 -214.5t61.5 -185.5q1 -4 1 -24v-157.5v-156.5q0 -14 -7 -20q-5 -7 -20 -7h-965q-22 0 -28 7q-8 6 -8 28v315q-1 9 7 30q16 50 60 181.5t68 202.5q4 14 16 17v0zM173 730l-119 -357h299q14 -1 20 -6q7 -6 8 -24
q1 -30 15.5 -56.5t39.5 -44.5q38 -28 85 -25q57 2 94 45q32 36 33 83q1 15 7 21t21 7h299l-119 357h-683v0zM45 328v-290h939v290h-292q-5 -40 -27.5 -75t-57.5 -55q-56 -35 -121 -24q-63 10 -105 57q-37 42 -44 97h-292v0v0zM45 328z" />
    <glyph glyph-name="fenxiang" unicode="&#xe61c;" 
d="M97 -79q-32 0 -54.5 22t-22.5 53v601q0 31 22.5 53t54.5 22h192v-58h-192q-8 0 -14 -5t-6 -12v-601q0 -7 6 -12t14 -5h780q8 0 13.5 5t5.5 12v216h58v-216q0 -31 -22.5 -53t-54.5 -22h-780v0zM425 129q-1 6 -2.5 20t0 50.5t8 74t26.5 88t51 94.5q116 167 375 226
l-210 113l30 54l302 -164l-177 -280l-52 33l116 183q-232 -54 -334 -199q-58 -83 -70 -193q-7 -55 -1 -97l1 -9l-61 -1l-2 7v0zM434 131q-1 6 -2.5 21t0 50.5t8.5 72.5t26 85.5t49 90.5q127 182 427 234l7 -43q-281 -49 -398 -215q-26 -38 -43.5 -83.5t-23.5 -78.5t-7.5 -69
t-0.5 -46t2 -19h-44zM825 417l-37 24l143 225l-246 133l21 38l287 -155zM825 417z" />
    <glyph glyph-name="yinxingqia-copy" unicode="&#xe61d;" 
d="M127 747h768q52 0 89.5 -37t37.5 -90v-470q0 -52 -37.5 -89.5t-89.5 -37.5h-768q-53 0 -90 37.5t-37 89.5v470q0 53 37 90t90 37zM978 511h-938v-367q0 -33 23.5 -56.5t56.5 -23.5h777q33 0 57 23.5t24 56.5v367v0zM40 554h938v72q0 33 -24 56.5t-57 23.5h-777
q-33 0 -56.5 -23.5t-23.5 -56.5v-72v0zM147 429h383q9 0 15 -6.5t6 -14.5v0q0 -9 -6 -15.5t-15 -6.5h-383q-8 0 -14.5 6.5t-6.5 15.5v0q0 8 6.5 14.5t14.5 6.5zM790 321h81q9 0 15 -6t6 -15v0q0 -9 -6 -15t-15 -6h-81q-9 0 -15 6t-6 15v0q0 9 6 15t15 6zM790 238h81
q9 0 15 -6.5t6 -15.5v0q0 -8 -6 -14.5t-15 -6.5h-81q-9 0 -15 6.5t-6 14.5v0q0 9 6 15.5t15 6.5z" />
    <glyph glyph-name="loudou" unicode="&#xe61e;" 
d="M1011 870q-9 6 -20 5q-1 1 -2 1h-959v0q-1 0 -2 -1h-0.5h-0.5h-2h-0.5h-0.5l-2 -1h-0.5h-0.5l-1 -0.5l-1 -0.5h-1h-1l-1 -1l-1 -0.5t-1 -1.5h-1v0v0q-1 -1 -2 -1q0 -1 -0.5 -1.5l-1 -1l-1 -1t-1.5 -0.5q0 -1 -0.5 -1.5l-1 -1t-0.5 -1.5t-0.5 -1.5l-1 -1t-0.5 -1.5
l-0.5 -1t-0.5 -1.5v-1.5v-1l-0.5 -1t-0.5 -1.5v-1.5v-1v0v-1v-1v-2l0.5 -1l0.5 -1v-2t0.5 -1t0.5 -1.5t0.5 -1.5t1 -1l0.5 -1q0 -1 0.5 -1.5t0.5 -1.5v0l360 -506v-295q0 -18 17 -26l234 -108h1v0q1 -1 2 -1h1q1 -1 2 -1h1h2h1q1 -1 2 -1v0v0v0q1 0 3 1h1h2v0q2 0 3 1h1h1
l1 1q1 0 2 1h0.5h0.5l1 1q1 0 1 1q1 0 2 1v0l2 2v0l2 2v0q1 1 1 2v0l2 2v1v0l0.5 0.5l0.5 0.5v1v1l0.5 0.5l0.5 0.5q0 1 0.5 2l0.5 1v1v2v1v2v0v403l360 506q6 10 4 21.5t-11 18.5zM424 334l-0.5 1t-0.5 2v1v1q0 1 -0.5 2l-0.5 1v1v0l-1 2v0.5v0.5q-1 1 -1 1.5t-1 0.5
q0 1 -1 2v0l-332 468h852l-332 -468v0l-2 -2v0v0q0 -1 -1 -2v-1q0 -1 -1 -2v-0.5v-0.5l-0.5 -1t-0.5 -1.5v-1v-0.5v-1.5v-1.5l-1 -1v-1v-366l-176 81v285v1z" />
    <glyph glyph-name="cancel" unicode="&#xe61f;" 
d="M512 -61q-90 0 -172.5 35.5t-142.5 95t-95 142t-35 173t35 173.5t95 142.5t142.5 95t173 35.5t173 -35.5t142.5 -95t95 -142.5t35 -173.5t-35 -173t-95 -142t-142.5 -95t-173.5 -35.5v0zM512 894q-103 0 -197.5 -40t-162.5 -108.5t-108.5 -163t-40.5 -198t40.5 -198
t108.5 -162.5t162.5 -108.5t198 -40.5t198 40.5t162.5 108.5t108.5 162.5t40.5 198t-40.5 198t-108.5 163t-162.5 108.5t-198.5 40v0zM694 567q-9 9 -22.5 9t-22.5 -9l-137 -137l-135 135q-9 9 -22 9t-22.5 -9t-9.5 -22.5t9 -22.5l135 -135l-136 -136q-9 -9 -9 -22.5
t9 -22.5q10 -10 23 -10t23 10l136 136l134 -135q10 -10 23 -10t22.5 9.5t9.5 22.5t-9 23l-135 134l136 137q10 10 10 23t-10 23v0z" />
    <glyph glyph-name="z-clothes" unicode="&#xe620;" 
d="M995 582l-244 244q-17 17 -40.5 17t-40.5 -17l-36 -36h-243l-37 37q-17 17 -40.5 17t-40.5 -17l-244 -245q-17 -16 -17 -40t17 -40l168 -168q2 -3 5 -5v-347q0 -24 17 -41t41 -17h504q24 0 41 17t17 41v346l5 5l168 168q17 17 17 40.5t-17 40.5zM595 751l-50 -50h-65
l-50 50h165zM967 529l-168 -168q0 -1 -1 -2q-15 -12 -15 -31v-346q0 -7 -5.5 -12.5t-13.5 -5.5h-504q-8 0 -13.5 5.5t-5.5 12.5v347q0 19 -15 31l-1 1l-168 169q-6 5 -6 12t6 13l244 244q5 5 13 5v0q7 0 12 -5l138 -138h97l92 93q4 2 7 6l38 38q5 6 12.5 6t12.5 -6l244 -244
q6 -5 6 -12.5t-6 -12.5z" />
    <glyph glyph-name="toright" unicode="&#xe65e;" horiz-adv-x="1000" 
d="M609 37l313 312q18 18 18 44t-18 45l-313 312q-18 18 -44 18t-44 -18t-18 -44t18 -44l206 -206h-599q-26 0 -44.5 -18.5t-18.5 -44.5t18.5 -44t44.5 -18h599l-206 -206q-18 -18 -18 -44t18 -44.5t44 -18.5t44 19v0z" />
    <glyph glyph-name="person" unicode="&#xe621;" 
d="M974 -95q1 -2 0 -2.5t0 -1.5v4q0 -12 -8 -20t-19.5 -8t-20 8t-8.5 20v0q-40 132 -152 216.5t-254 84.5q-141 0 -254 -87t-153 -220l1 6q0 -13 -9.5 -20.5t-19.5 -7.5q-11 0 -19 8t-8 20v0q0 1 0.5 4t0.5 4q1 1 1 1.5v1.5q34 115 117.5 200.5t197.5 121.5
q-89 42 -143 125.5t-54 184.5q0 93 45.5 172t124.5 125t172 46t172 -46t124.5 -125t45.5 -172q0 -101 -54 -184.5t-143 -125.5q113 -36 197 -121.5t118 -200.5q0 -1 1 -6l1 -5v0zM799 548q0 119 -84 203.5t-203 84.5t-203.5 -84.5t-84.5 -203.5t84.5 -203t203.5 -84t203 84
t84 203v0z" />
    <glyph glyph-name="shoes" unicode="&#xe622;" 
d="M971 169q-34 31 -104 70q-4 2 -30 18t-37 21.5t-32 11t-37 3.5q-5 0 -10 -2q-4 -2 -7 -4q-26 -14 -51 -18t-45 -1t-42.5 18t-37 27.5t-35 39t-30 40.5t-28.5 43.5t-24 37.5q-76 114 -144 201q-2 3 -15.5 21t-19 25t-18.5 21.5t-22.5 22.5t-22 16.5t-25.5 12.5
q-37 13 -94 -57q-72 -89 -53 -226q4 -30 22 -84t22 -70q35 -141 39 -350q0 -13 9.5 -22.5t22.5 -9.5h101q12 0 20 9.5t8 22.5v333q9 -5 17.5 -11t16 -14.5t12 -13t12.5 -15t10 -13.5q26 -31 67 -106.5t72 -109.5q28 -31 64 -50t72.5 -25t77.5 -7.5t80 1.5q4 0 26.5 0.5t32 1
t32.5 2t35.5 4t33 6t33.5 9.5t27.5 13t25 17.5t17.5 23.5q29 52 -44 116v0zM938 68q-18 -8 -40 -14t-38.5 -9t-46.5 -5t-41.5 -2h-46.5h-39q-33 0 -59 1q-52 2 -96 38t-70 87q-25 47 -40.5 74.5t-43 64.5t-56.5 64q-49 45 -90 51q-16 2 -29.5 -6.5t-13.5 -24.5v-348h-36
q-3 128 -15.5 227t-47.5 182q-18 43 -23 87.5t7 89t42 78.5q12 14 27 26q7 -5 26 -24q24 -24 49.5 -54.5t44 -54t45.5 -63.5t39 -58.5t42 -65.5t38 -59q27 -42 61.5 -74t75.5 -52t88 -19.5t92 25.5q8 1 20.5 -5t28 -16t17.5 -11q27 -14 59 -33q47 -29 74 -56
q17 -17 16.5 -24t-20.5 -17z" />
    <glyph glyph-name="you" unicode="&#xe623;" 
d="M512 892q-103 0 -197 -40t-162.5 -108.5t-108.5 -162.5t-40 -197t40 -197t108.5 -162.5t162.5 -108.5t197 -40t197 40t162.5 108.5t108.5 162.5t40 197t-40 197t-108.5 162.5t-162.5 108.5t-197 40v0zM512 -82q-95 0 -181 37t-148.5 99.5t-99.5 148.5t-37 181t37 181
t99.5 148.5t148.5 99.5t181 37t181 -37t148.5 -99.5t99.5 -148.5t37 -181t-37 -181t-99.5 -148.5t-148.5 -99.5t-181 -37v0zM512 -82zM390 675q-7 6 -15.5 6t-15 -6t-6.5 -15t7 -15l260 -261l-261 -261q-6 -6 -6 -15t6 -15t15 -6t15 6l276 276q6 7 6 15.5t-6 14.5zM390 675z
" />
    <glyph glyph-name="star" unicode="&#xe624;" 
d="M1025 488q0 22 -34 28l-308 45l-138 279q-12 25 -30.5 25t-29.5 -25l-138 -279l-308 -45q-34 -6 -34 -28q0 -13 15 -30l223 -217l-53 -307q-1 -8 -1 -12q0 -13 6.5 -21.5t19.5 -8.5q11 0 24 7l276 145l275 -145q13 -7 25 -7t18.5 8.5t6.5 21.5q0 8 -1 12l-53 307l223 217
q16 16 16 30z" />
    <glyph glyph-name="cha" unicode="&#xe627;" 
d="M582 386l342 -346q17 -17 25.5 -30t8 -28.5t-14.5 -30t-30 -14.5t-29 8.5t-30 24.5l-335 350l-352 -352q-16 -17 -29.5 -25.5t-29.5 -8t-30.5 14.5t-14.5 30t8.5 29.5t25.5 30.5l344 348l-342 338q-17 17 -25.5 30t-8 29t14.5 30t30 14.5t29 -8t30 -25.5l349 -334
l340 339q16 17 29.5 25.5t29.5 8t30 -14.5q11 -11 14 -22.5t-2.5 -23t-13 -21.5t-20.5 -23z" />
  </font>
</defs>
</svg>
